# xmcd
#
# Track frame offsets: 
#        150
#        24922
#        41609
#        50994
#        71495
#        86979
#        104889
#        131314
#        145999
#        164595
#        183481
#        195345
#        208393
#
# Disc length: 3071 seconds
#
# Revision: 0
# Processed by: cddbd v1.5.2PL0 Copyright (c) Steve Scherf et al.
# Submitted via: ExactAudioCopy v0.99pb5
#
DISCID=c90bfd0d
DTITLE=The Stumble - Houngan
DYEAR=2008
DGENRE=Blues
TTITLE0=It's a Lie
TTITLE1=Bus Stop
TTITLE2=Heart Stopped Workin'
TTITLE3=Flesh and Bone
TTITLE4=Houngan
TTITLE5=Maudie
TTITLE6=Nobody's Business
TTITLE7=Your Love For Me
TTITLE8=Georgia Sun
TTITLE9=Kind O'Girl
TTITLE10=Headshot
TTITLE11=Sugar Don't Taste So Sweet
TTITLE12=Meet Me at The Bottom
EXTD=
EXTT0=
EXTT1=
EXTT2=
EXTT3=
EXTT4=
EXTT5=
EXTT6=
EXTT7=
EXTT8=
EXTT9=
EXTT10=
EXTT11=
EXTT12=
PLAYORDER=
